<?xml version="1.0" standalone="no"?>
<!DOCTYPE svg PUBLIC "-//W3C//DTD SVG 20010904//EN"
 "http://www.w3.org/TR/2001/REC-SVG-20010904/DTD/svg10.dtd">
<svg version="1.0" xmlns="http://www.w3.org/2000/svg"
 width="2700.000000pt" height="2700.000000pt" viewBox="0 0 2700.000000 2700.000000"
 preserveAspectRatio="xMidYMid meet">
<metadata>
Created by potrace 1.14, written by Peter Selinger 2001-2017
</metadata>
<g transform="translate(0.000000,2700.000000) scale(0.100000,-0.100000)"
fill="#000000" stroke="none">
<path d="M9525 24343 c-264 -38 -438 -196 -570 -513 -51 -123 -119 -379 -150
-565 -7 -37 -9 -51 -20 -115 -7 -39 -43 -299 -50 -360 -3 -30 -8 -71 -10 -90
-11 -94 -21 -191 -30 -290 -3 -36 -8 -85 -10 -110 -11 -111 -15 -150 -20 -220
-3 -41 -8 -95 -10 -120 -2 -25 -7 -83 -11 -130 -4 -47 -8 -98 -9 -115 -2 -16
-6 -73 -9 -125 -4 -52 -9 -115 -11 -140 -2 -25 -7 -85 -10 -135 -3 -49 -8
-108 -10 -130 -6 -56 -16 -198 -29 -390 -4 -55 -9 -120 -11 -145 -2 -25 -7
-83 -11 -130 -3 -47 -7 -101 -9 -120 -2 -19 -6 -73 -10 -120 -3 -47 -8 -101
-10 -120 -2 -19 -7 -73 -10 -120 -3 -47 -7 -98 -9 -115 -2 -16 -7 -69 -11
-117 -3 -49 -8 -96 -10 -106 -2 -10 -6 -62 -10 -115 -3 -54 -8 -105 -9 -115
-2 -9 -7 -56 -10 -104 -4 -48 -9 -98 -11 -110 -2 -13 -6 -59 -10 -102 -4 -43
-8 -86 -10 -95 -1 -9 -6 -52 -10 -95 -4 -43 -8 -86 -10 -95 -1 -9 -6 -51 -10
-94 -3 -43 -8 -88 -10 -100 -2 -12 -6 -49 -10 -82 -3 -33 -12 -112 -20 -175
-8 -63 -17 -140 -20 -170 -4 -30 -8 -66 -10 -80 -2 -14 -6 -50 -10 -80 -3 -30
-8 -66 -10 -80 -2 -14 -7 -43 -9 -65 -8 -66 -17 -129 -21 -155 -3 -14 -7 -45
-10 -70 -3 -25 -7 -54 -9 -66 -2 -12 -7 -45 -11 -74 -4 -29 -8 -60 -10 -69 -3
-17 -14 -88 -20 -131 -2 -14 -11 -74 -20 -135 -9 -60 -18 -121 -20 -135 -2
-14 -7 -43 -10 -65 -3 -22 -8 -51 -10 -65 -3 -14 -7 -47 -11 -75 -3 -27 -7
-52 -9 -55 -2 -3 -6 -30 -10 -60 -3 -30 -8 -62 -10 -70 -2 -8 -7 -35 -10 -60
-7 -51 -12 -82 -25 -160 -5 -30 -12 -73 -15 -95 -6 -41 -23 -150 -30 -195 -5
-31 -12 -74 -20 -120 -3 -19 -8 -46 -10 -60 -2 -14 -18 -110 -35 -215 -17
-104 -33 -201 -35 -215 -2 -14 -13 -77 -24 -140 -11 -63 -23 -132 -27 -154 -3
-21 -8 -48 -10 -60 -2 -11 -6 -37 -10 -56 -3 -19 -9 -55 -14 -80 -5 -25 -12
-61 -14 -80 -3 -19 -10 -60 -16 -90 -6 -30 -13 -71 -16 -90 -3 -19 -7 -42 -9
-50 -2 -8 -7 -31 -10 -50 -4 -27 -61 -330 -81 -435 -2 -11 -7 -36 -10 -55 -4
-19 -8 -44 -11 -55 -4 -21 -19 -101 -28 -145 -3 -14 -9 -47 -15 -75 -13 -64
-19 -94 -25 -126 -3 -14 -20 -100 -39 -190 -33 -155 -38 -178 -52 -246 -3 -16
-10 -48 -15 -73 -6 -25 -13 -55 -15 -67 -2 -13 -29 -132 -59 -265 -31 -134
-57 -252 -59 -263 -3 -11 -32 -132 -66 -270 -34 -137 -63 -257 -65 -265 -2 -8
-13 -53 -25 -100 -12 -47 -24 -92 -26 -100 -2 -8 -22 -85 -44 -170 -23 -85
-46 -173 -51 -195 -12 -49 -159 -561 -201 -700 -204 -680 -461 -1421 -699
-2017 -63 -157 -221 -540 -244 -593 -8 -16 -50 -111 -93 -210 -77 -173 -102
-229 -179 -395 -90 -195 -150 -319 -300 -620 -90 -179 -188 -372 -219 -430
-140 -264 -169 -317 -276 -510 -63 -113 -124 -221 -136 -240 -11 -19 -27 -46
-35 -60 -81 -149 -418 -710 -572 -950 -228 -357 -471 -723 -663 -998 -56 -81
-116 -167 -133 -191 -352 -505 -615 -848 -893 -1161 -27 -30 -63 -71 -80 -90
-17 -19 -51 -57 -75 -85 -80 -91 -185 -209 -228 -255 -23 -25 -51 -55 -62 -68
-18 -22 -119 -130 -326 -351 -136 -145 -745 -753 -870 -868 -118 -109 -117
-107 -251 -229 -177 -161 -395 -344 -496 -418 l-57 -41 0 -88 -1 -88 2163 4
c1189 2 2173 7 2187 10 14 4 44 9 67 12 73 9 223 31 278 41 10 2 37 6 60 9 22
3 51 8 65 10 58 12 76 15 115 21 22 3 83 14 135 25 52 11 107 22 123 24 15 3
60 12 100 21 39 8 83 18 97 20 14 3 43 10 65 15 22 5 51 12 65 15 96 19 506
124 682 174 967 276 1825 614 2788 1097 295 148 354 179 525 272 44 24 109 60
145 79 36 19 70 38 75 42 6 4 35 21 65 37 30 17 71 40 90 51 19 12 42 25 50
29 19 9 215 123 298 174 35 22 67 39 73 39 5 0 9 5 9 10 0 6 5 10 10 10 19 0
540 330 865 547 436 291 530 356 895 622 208 151 551 407 595 443 6 5 98 77
205 160 190 148 490 386 500 398 3 3 37 30 75 60 39 30 72 57 75 61 3 3 44 37
91 75 80 65 167 136 192 159 7 6 71 60 142 120 178 149 755 648 811 700 6 5
41 37 78 70 38 33 78 69 90 80 33 30 194 174 245 220 25 22 52 47 61 55 57 53
209 192 230 210 23 20 53 47 200 184 30 29 113 105 185 171 71 66 141 131 155
145 15 14 58 54 96 90 38 36 136 128 218 205 81 77 171 162 199 189 29 26 119
112 201 190 81 77 171 163 200 189 28 27 130 124 226 217 96 92 198 189 227
216 28 27 127 122 220 210 92 89 191 183 220 210 28 27 118 113 200 190 162
156 177 169 348 329 65 61 152 142 194 181 42 39 92 87 113 105 170 157 245
225 388 355 91 81 181 163 200 181 19 18 40 33 45 33 6 0 24 -15 41 -32 27
-30 330 -322 464 -448 189 -178 325 -305 395 -370 44 -40 85 -78 90 -84 6 -6
33 -31 60 -56 83 -74 247 -224 269 -245 12 -11 82 -74 156 -140 74 -66 137
-122 140 -125 4 -5 107 -96 340 -300 36 -32 81 -70 100 -86 19 -16 37 -31 40
-34 3 -3 39 -34 80 -69 41 -36 85 -74 97 -85 12 -12 28 -26 35 -31 7 -6 56
-46 108 -91 649 -552 1522 -1241 2085 -1645 49 -35 97 -69 105 -76 8 -7 65
-47 125 -90 61 -42 112 -81 113 -85 2 -4 8 -8 13 -8 5 0 42 -23 81 -52 40 -28
154 -105 253 -171 99 -65 199 -132 223 -148 23 -16 45 -29 48 -29 3 0 24 -13
47 -29 56 -38 376 -231 383 -231 3 0 18 -8 32 -19 65 -45 380 -214 662 -355
300 -149 395 -193 645 -300 61 -26 119 -51 130 -56 46 -23 290 -118 293 -115
3 3 5 1077 3 1183 -1 12 -6 22 -13 22 -34 0 -615 280 -898 433 -469 254 -1046
623 -1530 979 -36 27 -74 55 -85 63 -235 167 -886 665 -1140 871 -44 36 -87
71 -95 77 -51 41 -276 223 -280 227 -3 3 -99 84 -215 180 -202 168 -591 499
-686 584 -25 23 -76 68 -114 101 -37 33 -73 65 -79 70 -6 6 -67 60 -136 120
-68 61 -132 117 -140 125 -9 8 -54 49 -100 90 -90 81 -87 78 -210 190 -108 98
-117 106 -239 219 -161 149 -168 156 -306 286 -71 68 -148 140 -171 161 -169
159 -374 359 -374 364 0 10 394 331 640 522 l85 66 360 -356 c294 -291 549
-538 710 -687 11 -11 52 -49 91 -85 83 -77 128 -119 294 -270 69 -62 145 -132
170 -154 25 -23 76 -68 114 -101 38 -33 81 -71 95 -84 14 -13 87 -76 161 -140
161 -139 189 -163 204 -176 6 -6 94 -79 196 -164 102 -84 198 -165 214 -179
43 -37 469 -377 560 -447 43 -33 83 -65 90 -71 51 -47 748 -557 988 -722 118
-81 318 -217 345 -234 16 -10 54 -35 85 -55 282 -187 810 -505 1082 -652 263
-142 319 -171 324 -166 3 2 5 431 3 622 l-1 72 -67 37 c-38 20 -113 63 -168
94 -55 32 -117 67 -137 79 -21 11 -55 31 -75 42 -21 12 -57 34 -81 50 -24 16
-45 29 -48 29 -2 0 -65 38 -140 85 -74 47 -137 85 -140 85 -3 0 -10 5 -17 10
-7 6 -120 81 -252 168 -253 166 -519 351 -796 552 -108 78 -610 459 -619 469
-3 3 -34 28 -70 56 -36 27 -72 55 -80 62 -206 166 -446 363 -560 458 -80 68
-179 151 -220 186 -41 34 -77 65 -80 68 -3 4 -36 33 -75 66 -59 51 -507 448
-541 480 -15 14 -210 194 -248 229 -309 284 -1146 1100 -1146 1118 0 11 490
338 507 338 3 0 42 -35 87 -78 76 -74 163 -155 315 -297 36 -33 75 -69 86 -80
26 -24 191 -174 215 -195 9 -8 46 -40 80 -70 35 -30 71 -62 79 -71 9 -9 84
-74 166 -145 83 -70 152 -131 155 -134 10 -11 370 -310 495 -411 615 -497
1300 -988 1870 -1343 105 -65 202 -127 217 -137 15 -10 29 -19 32 -19 2 0 51
-28 108 -62 56 -34 148 -87 203 -118 55 -31 116 -66 135 -77 19 -11 71 -39
115 -63 44 -23 108 -58 143 -77 80 -43 500 -253 507 -253 3 0 5 141 5 314 l0
313 -82 43 c-104 53 -256 134 -328 173 -30 17 -75 41 -100 55 -365 201 -948
568 -1380 869 -290 203 -888 650 -1075 805 -11 9 -87 72 -170 139 -149 121
-502 418 -560 470 -16 15 -91 80 -165 145 -74 65 -140 123 -146 129 -6 5 -51
46 -100 90 -48 44 -100 91 -115 105 -15 14 -62 57 -106 97 -43 39 -104 96
-137 126 l-58 55 68 37 c38 21 96 53 129 72 107 61 531 277 562 287 18 6 32
-2 71 -41 115 -113 337 -326 451 -433 68 -63 133 -124 145 -135 12 -11 64 -58
116 -105 52 -47 97 -87 100 -90 3 -3 39 -34 80 -69 41 -36 80 -70 85 -75 6 -6
55 -49 110 -96 55 -47 102 -87 105 -90 3 -3 28 -24 55 -45 28 -22 52 -43 55
-46 3 -3 100 -82 215 -174 254 -204 567 -439 810 -609 99 -69 185 -130 192
-135 7 -6 14 -11 17 -11 3 0 45 -27 93 -59 183 -123 544 -348 673 -419 25 -13
70 -39 100 -57 30 -18 80 -46 110 -62 30 -16 90 -49 133 -72 43 -24 81 -41 84
-37 6 6 8 515 2 520 -2 1 -74 42 -159 91 -432 245 -964 598 -1380 914 -146
111 -317 244 -364 283 -242 200 -469 389 -496 414 -19 17 -80 71 -135 119 -55
48 -102 91 -105 94 -3 3 -48 44 -100 91 -52 47 -104 94 -116 105 -391 370
-468 446 -458 454 5 5 61 29 124 55 63 27 129 54 145 61 132 60 611 237 629
233 8 -2 54 -41 103 -88 661 -631 1307 -1140 1963 -1547 165 -103 337 -203
348 -203 4 0 7 102 6 228 l-1 227 -139 88 c-389 246 -702 468 -1029 731 -127
101 -328 268 -345 286 -3 3 -41 37 -85 75 -106 93 -142 125 -175 155 -15 14
-66 61 -113 105 -48 43 -87 82 -87 85 0 6 127 44 180 55 8 2 15 4 15 5 0 1 7
3 15 5 8 1 35 8 60 15 25 7 53 14 63 16 10 2 27 6 37 9 10 3 27 7 37 9 10 2
38 9 63 16 25 7 56 14 70 17 14 2 50 10 80 18 54 13 226 49 285 60 34 6 59 10
133 26 29 6 66 12 82 15 17 2 44 6 61 8 17 3 42 7 57 10 15 3 47 8 72 11 25 3
74 10 109 16 60 9 158 22 261 34 25 3 54 8 66 10 12 3 59 -17 119 -50 54 -30
101 -53 103 -50 8 7 6 341 -2 353 -12 20 -433 238 -676 349 -516 237 -1052
413 -1490 488 -41 7 -82 13 -200 30 -89 13 -201 24 -310 31 -89 5 -440 5 -468
0 -12 -3 -56 -8 -97 -11 -41 -3 -96 -9 -120 -14 l-46 -9 -92 96 c-562 582
-902 880 -1237 1085 -229 139 -487 238 -689 264 -112 15 -467 7 -571 -12 -8
-1 -40 -6 -70 -10 -30 -4 -100 -16 -155 -27 l-99 -20 -44 48 c-25 27 -83 92
-131 144 -643 708 -1066 1010 -1416 1013 -85 1 -183 -6 -250 -18 -126 -22
-207 -43 -320 -82 -71 -24 -139 -47 -150 -49 -16 -4 -30 12 -75 83 -30 48 -58
90 -62 91 -4 2 -8 7 -8 12 0 14 -309 490 -490 754 -122 178 -291 374 -415 481
-133 115 -330 201 -520 229 -113 17 -362 24 -415 12 -14 -3 -41 -9 -60 -12
-86 -15 -253 -99 -359 -180 l-44 -34 -47 77 c-26 43 -151 249 -277 458 -438
725 -531 861 -717 1046 -139 140 -336 243 -504 264 -26 4 -58 8 -72 11 -39 6
-190 6 -235 -1 -285 -44 -549 -273 -824 -719 l-85 -137 -43 68 c-46 72 -64 99
-315 492 -86 135 -181 284 -211 331 -30 47 -198 310 -374 585 -480 751 -658
1027 -822 1275 -53 80 -98 150 -101 155 -3 6 -23 37 -45 70 -22 33 -42 65 -45
70 -3 6 -99 151 -215 323 -115 173 -217 324 -225 337 -8 13 -71 104 -140 201
-325 463 -528 701 -681 796 -80 50 -220 65 -384 41z m395 -1826 c109 -165 524
-795 606 -922 311 -479 834 -1294 1261 -1963 43 -67 105 -164 137 -215 33 -50
73 -114 91 -142 17 -27 78 -123 136 -213 57 -89 109 -171 114 -181 6 -10 22
-36 36 -57 14 -22 42 -64 61 -94 19 -30 66 -104 105 -165 105 -165 100 -145
63 -234 -18 -42 -41 -95 -52 -119 -10 -24 -32 -78 -49 -120 -17 -42 -36 -90
-43 -107 -7 -16 -23 -52 -34 -80 -12 -27 -98 -243 -192 -480 -94 -236 -180
-449 -191 -472 -10 -24 -19 -45 -19 -48 0 -6 -146 -379 -160 -410 -5 -11 -68
-168 -140 -350 -72 -181 -140 -349 -151 -372 -10 -24 -19 -46 -19 -49 0 -3 -6
-20 -14 -37 -8 -18 -71 -170 -140 -338 -406 -993 -797 -1883 -1194 -2719 -27
-58 -73 -154 -101 -215 -69 -145 -371 -748 -449 -897 -34 -65 -90 -171 -123
-235 -34 -65 -69 -131 -79 -148 -9 -16 -41 -74 -69 -129 -29 -54 -60 -112 -70
-130 -10 -17 -38 -69 -63 -116 -25 -47 -99 -182 -165 -300 -66 -118 -134 -240
-151 -270 -52 -95 -220 -391 -374 -660 -11 -19 -86 -147 -166 -285 -80 -137
-150 -259 -156 -270 -6 -11 -19 -31 -27 -45 -9 -14 -84 -140 -167 -280 -313
-531 -774 -1293 -1042 -1720 -6 -8 -103 -163 -216 -345 -284 -453 -322 -514
-505 -800 -313 -489 -474 -736 -869 -1330 -285 -428 -337 -505 -475 -705 -28
-41 -81 -118 -117 -170 -516 -754 -1052 -1463 -1282 -1695 -30 -30 -34 -33
-18 -10 69 94 336 470 373 524 24 35 73 104 107 155 214 307 577 861 800 1220
85 138 165 267 177 286 23 35 82 134 207 345 284 480 645 1137 855 1555 43 85
81 157 86 158 4 2 7 7 7 12 0 4 58 127 129 272 71 144 142 292 159 328 16 36
50 108 75 160 58 123 241 527 274 605 14 33 35 83 48 110 12 28 41 95 65 150
23 55 48 114 55 130 65 148 252 614 351 875 41 107 81 211 88 230 26 65 107
285 111 300 2 8 20 60 40 115 45 121 185 524 190 545 2 8 17 53 33 100 76 218
262 815 353 1135 33 116 69 237 79 270 11 33 22 71 24 85 3 14 46 174 96 355
49 182 93 346 96 365 3 19 8 38 11 42 2 5 6 16 8 25 2 10 22 92 45 183 23 91
43 172 45 180 2 8 22 91 44 184 23 93 43 178 45 190 3 12 25 111 51 221 25
110 48 211 51 225 3 14 27 126 54 250 41 190 93 434 115 543 8 44 14 73 50
252 28 141 91 469 108 565 3 14 12 63 21 110 8 47 18 101 21 120 3 19 15 82
25 140 11 58 22 119 25 135 2 17 7 41 10 55 7 36 114 680 131 785 2 17 7 42
10 57 3 15 7 39 9 55 2 15 13 89 25 163 12 74 23 149 26 165 2 17 6 41 9 55 2
14 7 43 10 65 11 76 66 450 70 475 2 14 6 45 10 70 3 25 8 56 10 70 2 14 7 45
10 70 3 25 10 77 15 115 5 39 12 89 15 113 3 23 7 60 10 82 5 42 10 79 20 170
4 30 8 66 10 80 2 14 9 70 15 125 6 55 13 116 15 135 2 19 7 60 10 90 3 30 8
71 10 90 7 57 19 172 30 290 3 30 7 75 10 100 2 25 7 74 10 110 3 36 8 81 10
100 2 19 7 69 11 110 3 41 7 89 10 105 2 17 6 66 9 110 3 44 7 98 10 120 7 69
14 157 20 240 3 44 8 98 10 120 2 22 7 76 10 120 3 44 8 100 10 125 4 42 8
100 20 265 3 39 8 95 10 125 3 30 7 89 10 130 7 98 14 192 20 260 2 30 7 96
11 145 12 175 24 327 29 385 2 25 7 83 10 130 4 47 8 101 10 120 2 19 6 71 10
115 3 44 8 96 10 115 2 19 7 64 10 100 3 36 8 83 10 105 2 22 7 72 11 110 4
39 8 79 10 90 1 11 3 32 3 48 1 15 4 27 9 27 4 0 41 -51 82 -113z m4362 -2713
c80 -28 160 -104 268 -254 67 -93 223 -334 271 -417 13 -23 47 -80 75 -125 29
-46 61 -99 71 -118 11 -19 78 -129 148 -245 70 -115 135 -222 144 -237 9 -15
55 -91 103 -168 l87 -141 -108 -162 c-165 -246 -521 -832 -521 -857 0 -6 -4
-10 -8 -10 -4 0 -13 -15 -20 -32 -12 -33 -13 -33 -25 -11 -6 13 -94 150 -194
305 -314 487 -643 1002 -915 1431 l-139 218 42 82 c168 331 295 537 405 656
83 90 129 112 211 105 34 -2 81 -11 105 -20z m2448 -1548 c30 -8 71 -21 91
-30 57 -24 151 -100 215 -173 32 -38 61 -70 64 -73 3 -3 30 -39 60 -80 30 -41
57 -77 61 -80 10 -8 410 -617 469 -715 8 -13 44 -70 79 -125 35 -55 62 -102
60 -104 -2 -2 -40 -30 -84 -62 -44 -32 -123 -94 -175 -138 -91 -77 -127 -108
-211 -188 l-39 -36 -57 81 c-32 45 -61 87 -66 92 -5 6 -36 51 -71 100 -34 50
-83 119 -108 155 -146 209 -201 290 -431 635 -237 354 -304 457 -370 561 l-26
41 37 35 c53 50 128 99 176 114 53 16 251 10 326 -10z m-3600 -731 c73 -115
152 -239 175 -275 24 -36 120 -186 215 -335 95 -148 187 -292 205 -320 18 -27
58 -90 90 -140 92 -143 155 -240 250 -385 49 -74 89 -144 88 -155 -1 -11 -72
-146 -159 -300 -86 -154 -168 -300 -181 -325 -14 -25 -39 -70 -56 -100 -18
-31 -74 -130 -125 -220 -51 -91 -97 -172 -102 -180 -8 -13 -59 -102 -187 -330
-49 -87 -264 -459 -341 -590 -47 -80 -94 -161 -105 -180 -117 -209 -912 -1532
-1002 -1670 -50 -76 -175 -280 -175 -285 0 -3 -5 -11 -10 -18 -9 -10 -312
-487 -423 -667 -29 -47 -194 -306 -372 -583 -55 -85 -157 -242 -267 -412 -488
-749 -1134 -1711 -1553 -2310 -46 -66 -109 -156 -140 -200 -599 -862 -1551
-2139 -2052 -2755 -7 -8 -56 -69 -109 -135 -110 -137 -95 -119 -366 -445 -207
-249 -237 -285 -273 -326 -11 -12 -40 -46 -65 -75 -135 -160 -548 -624 -665
-749 -34 -36 -91 -96 -126 -134 -292 -313 -926 -942 -939 -930 -2 3 0 8 6 12
14 10 207 247 368 452 76 96 144 183 152 193 172 212 769 1031 1087 1492 86
124 680 1013 749 1120 98 152 227 353 264 410 21 33 41 65 44 70 4 10 156 251
245 390 31 47 225 364 378 615 39 63 77 126 86 140 9 14 21 34 27 45 6 11 80
135 164 275 84 140 161 268 170 285 10 16 95 163 190 325 95 162 180 309 189
325 9 17 63 112 121 212 58 100 112 195 120 210 18 32 144 256 235 418 34 61
78 139 97 175 20 36 47 85 61 110 41 74 250 459 297 545 23 44 50 94 60 110
10 17 43 80 75 140 32 61 72 137 90 170 71 132 194 365 344 655 227 436 661
1317 831 1685 15 33 43 94 63 135 19 41 74 161 122 265 48 105 100 218 116
253 16 35 29 65 29 67 0 2 15 36 34 77 19 40 57 127 86 193 29 66 66 148 81
183 16 34 29 65 29 67 0 2 13 33 29 67 15 35 59 135 96 223 37 88 75 178 85
200 17 38 111 262 187 445 19 47 41 99 48 115 31 70 232 563 344 845 67 168
126 314 131 325 5 11 77 191 160 400 83 209 154 389 159 400 5 11 35 85 66
165 31 80 62 159 69 175 8 17 55 131 104 255 121 302 131 325 141 314 4 -5 68
-103 141 -219z m2908 -335 c232 -349 313 -467 448 -660 29 -41 70 -100 91
-130 21 -30 83 -118 138 -195 55 -77 109 -153 120 -169 11 -16 24 -34 29 -41
6 -8 -41 -71 -145 -196 -154 -183 -400 -495 -538 -682 l-72 -98 -81 113 c-137
190 -208 295 -535 788 -173 261 -329 494 -345 518 l-29 42 48 88 c26 48 52 94
58 103 5 9 18 32 29 50 85 155 409 692 494 822 14 21 29 34 33 30 4 -4 120
-177 257 -383z m3129 -380 c144 -56 354 -221 621 -489 168 -168 334 -345 340
-362 2 -5 -14 -16 -35 -25 -21 -8 -62 -26 -91 -40 -29 -13 -55 -24 -58 -24 -6
0 -268 -131 -314 -157 -97 -56 -209 -122 -246 -146 l-42 -26 -58 84 c-110 157
-686 1020 -723 1084 -6 10 -24 6 -86 -23 -43 -20 -80 -35 -82 -33 -5 6 140 70
227 102 92 32 216 63 290 71 30 4 56 8 58 9 2 2 31 3 66 3 45 0 83 -8 133 -28z
m-808 -173 c-2 -1 -13 -9 -24 -17 -19 -14 -19 -14 -6 3 7 9 18 17 24 17 6 0 8
-1 6 -3z m-268 -224 c42 -70 592 -897 695 -1045 l102 -148 -66 -52 c-37 -29
-78 -63 -92 -74 -14 -12 -74 -63 -134 -115 l-110 -93 -20 28 c-12 16 -48 63
-81 105 -186 237 -775 1029 -775 1041 0 19 427 388 452 390 3 0 17 -17 29 -37z
m3349 -628 c41 -3 93 -10 115 -16 22 -5 50 -12 62 -14 123 -27 330 -129 518
-256 218 -147 394 -300 748 -649 l218 -215 -153 -51 c-233 -77 -469 -176 -673
-281 l-49 -25 -31 34 c-16 19 -45 51 -62 71 -38 42 -245 280 -277 317 -71 84
-265 309 -283 330 -171 196 -620 726 -618 728 2 2 16 5 32 7 15 2 44 7 63 9
19 3 91 9 160 12 69 4 127 8 128 10 2 1 9 1 15 -1 7 -2 46 -6 87 -10z m-983
-188 c15 -19 176 -206 357 -418 181 -211 354 -413 385 -449 30 -36 62 -72 71
-81 8 -9 24 -27 35 -40 43 -52 133 -158 200 -234 38 -44 97 -112 130 -150 82
-95 148 -169 158 -176 5 -3 -47 -41 -115 -85 -140 -89 -386 -257 -532 -363
-54 -39 -102 -71 -106 -71 -6 0 -138 138 -200 210 -14 16 -171 188 -195 214
-6 6 -58 65 -115 131 -58 66 -108 122 -111 125 -3 3 -65 75 -138 160 -74 85
-143 166 -155 180 -12 14 -53 63 -91 110 -38 47 -72 87 -76 90 -3 3 -56 68
-118 145 -62 77 -120 149 -129 160 -10 11 -43 53 -74 92 l-57 71 47 30 c140
89 334 192 501 267 82 37 279 114 293 115 3 0 19 -15 35 -33z m-2949 -472
c182 -242 372 -493 422 -558 105 -136 106 -107 -9 -226 -35 -36 -118 -124
-185 -196 -146 -157 -129 -139 -198 -216 -107 -121 -118 -134 -195 -226 -43
-50 -83 -94 -89 -96 -6 -3 -53 45 -105 105 -52 61 -101 118 -110 127 -49 50
-485 586 -588 723 l-42 56 129 175 c71 95 136 182 145 193 9 10 67 84 129 164
221 285 348 434 358 423 4 -4 156 -206 338 -448z m-2884 93 c192 -291 352
-524 505 -736 184 -257 186 -260 215 -302 13 -19 33 -44 44 -56 40 -42 45 -62
22 -92 -23 -28 -107 -150 -268 -387 -53 -77 -123 -180 -157 -230 -34 -49 -105
-154 -158 -232 -165 -243 -288 -424 -352 -518 -34 -49 -115 -169 -180 -265
-66 -96 -146 -213 -178 -260 -32 -47 -97 -141 -143 -210 -47 -69 -109 -159
-138 -200 -28 -41 -88 -127 -131 -190 -94 -137 -591 -847 -658 -940 -25 -36
-69 -96 -97 -135 -125 -176 -604 -836 -623 -860 -4 -5 -100 -134 -213 -285
-204 -275 -316 -424 -344 -459 -8 -11 -53 -69 -100 -131 -221 -291 -679 -875
-993 -1264 -203 -251 -640 -781 -656 -796 -3 -3 -24 -27 -46 -55 -22 -27 -52
-63 -66 -80 -15 -16 -111 -129 -215 -250 -103 -121 -202 -236 -220 -255 -17
-19 -68 -78 -114 -130 -104 -120 -169 -193 -355 -400 -82 -91 -160 -178 -174
-194 -15 -16 -48 -52 -74 -80 -27 -28 -81 -86 -120 -130 -81 -89 -97 -106
-281 -300 -418 -444 -938 -964 -1352 -1352 -139 -130 -143 -135 -272 -251 -48
-43 -93 -85 -102 -93 -8 -8 -49 -44 -90 -80 -41 -36 -77 -68 -80 -71 -3 -3
-43 -39 -90 -79 -47 -40 -94 -82 -105 -92 -11 -10 -33 -30 -50 -44 -266 -224
-397 -332 -530 -438 -88 -70 -169 -135 -180 -144 -72 -59 -497 -374 -645 -478
-120 -85 -124 -86 -45 -13 194 178 937 933 1076 1093 19 22 50 56 69 76 19 19
71 76 115 125 44 50 85 95 90 101 10 10 88 100 174 198 24 28 47 53 50 56 3 3
46 52 96 110 49 58 92 107 95 110 3 3 41 48 85 100 106 125 94 111 250 300 76
91 147 176 159 190 11 14 37 45 56 70 19 25 37 47 41 50 14 12 524 657 695
880 45 58 142 186 217 285 75 99 140 185 144 190 67 83 529 712 815 1110 220
307 627 887 804 1147 29 43 82 119 117 170 265 386 946 1410 1198 1800 36 57
150 233 253 392 102 158 186 290 186 292 0 2 15 26 33 52 27 38 104 158 197
307 8 14 60 95 114 182 282 448 864 1393 910 1478 22 39 179 301 212 352 19
28 34 53 34 56 0 2 25 45 54 95 60 100 434 740 467 800 12 20 25 42 29 47 4 6
24 42 45 80 21 39 44 77 51 86 8 8 14 18 14 21 0 3 61 113 136 244 75 132 209
367 297 524 88 157 173 308 189 335 15 28 49 89 76 137 26 48 48 88 49 88 2 0
54 -78 117 -172z m4550 -360 c19 -24 99 -122 177 -218 242 -298 631 -754 866
-1016 35 -40 73 -83 84 -95 29 -34 184 -203 248 -272 33 -34 51 -61 45 -66 -5
-5 -99 -80 -209 -166 -110 -87 -206 -162 -213 -168 -9 -7 -17 -4 -28 11 -8 12
-20 27 -27 34 -6 7 -45 51 -86 98 -41 47 -84 95 -95 107 -12 12 -26 28 -31 35
-13 16 -247 291 -284 333 -25 28 -106 125 -143 170 -9 11 -52 63 -96 115 -65
79 -194 239 -566 704 -17 21 -42 54 -55 73 l-25 34 35 32 c72 68 349 296 361
297 4 0 23 -19 42 -42z m5111 -413 c61 -3 126 -8 145 -10 19 -2 57 -7 84 -10
58 -6 173 -23 202 -29 12 -2 39 -7 60 -10 22 -4 46 -8 54 -11 8 -2 26 -6 40
-9 251 -46 701 -184 935 -286 11 -4 54 -22 95 -38 122 -50 264 -114 448 -205
188 -92 186 -89 72 -102 -25 -3 -57 -8 -72 -10 -16 -3 -40 -7 -55 -10 -16 -2
-48 -7 -73 -10 -95 -11 -495 -90 -713 -141 -84 -19 -160 -37 -169 -39 -9 -2
-51 -13 -93 -25 -42 -12 -84 -23 -93 -25 -9 -2 -73 -19 -142 -40 -69 -20 -132
-38 -141 -40 -21 -4 -614 593 -979 986 -27 30 -46 57 -42 61 14 14 206 15 437
3z m-900 -109 c27 -31 190 -204 400 -425 121 -127 364 -378 511 -526 l131
-132 -116 -43 c-169 -63 -443 -172 -629 -251 l-163 -70 -107 109 c-242 248
-515 534 -618 647 -15 17 -50 55 -78 86 -221 241 -271 298 -265 303 15 11 210
99 339 151 185 76 423 154 520 172 13 2 27 6 29 9 9 8 16 4 46 -30z m-4866
-521 c53 -66 98 -122 101 -125 3 -3 32 -39 65 -80 33 -41 67 -84 76 -95 10
-11 45 -54 79 -95 34 -41 69 -84 78 -95 10 -11 60 -72 112 -135 52 -63 97
-117 100 -120 3 -3 28 -32 55 -65 28 -32 57 -66 65 -75 8 -9 38 -43 65 -75 28
-33 113 -132 190 -220 77 -88 145 -167 152 -176 10 -12 4 -21 -31 -49 -52 -42
-95 -79 -385 -329 -124 -107 -247 -214 -274 -238 l-47 -44 -38 40 c-31 33
-132 140 -357 376 -35 36 -198 209 -345 365 -47 50 -236 253 -286 306 -27 29
-176 190 -238 258 -50 55 -101 111 -119 133 -18 20 -17 22 80 134 53 63 102
119 108 125 5 6 33 37 60 68 91 106 263 292 394 428 l93 97 76 -97 c41 -53
118 -151 171 -217z m3582 -117 c46 -51 104 -115 129 -142 25 -27 59 -64 75
-81 17 -18 54 -58 84 -91 49 -54 190 -205 351 -374 34 -36 120 -125 192 -198
72 -73 129 -134 127 -136 -2 -1 -110 -57 -239 -123 -129 -66 -257 -133 -285
-149 -27 -15 -95 -53 -150 -84 l-100 -57 -94 91 c-115 111 -698 693 -834 833
l-99 101 118 84 c64 46 149 105 188 133 92 63 438 285 447 285 3 0 44 -41 90
-92z m-6201 -228 c79 -96 164 -199 189 -229 159 -187 380 -442 395 -456 6 -6
22 -23 35 -37 l24 -27 -109 -143 c-60 -79 -186 -246 -281 -373 -95 -126 -176
-234 -181 -240 -4 -5 -144 -197 -312 -425 -167 -228 -334 -455 -370 -505 -37
-49 -129 -175 -205 -280 -163 -223 -690 -927 -749 -1001 -23 -28 -52 -65 -66
-84 -41 -54 -177 -228 -205 -263 -15 -17 -32 -39 -38 -47 -7 -8 -37 -47 -67
-85 -30 -39 -57 -72 -60 -75 -3 -3 -33 -39 -66 -80 -32 -41 -67 -84 -77 -95
-10 -11 -44 -51 -75 -90 -31 -38 -59 -72 -62 -75 -3 -3 -72 -86 -155 -185 -82
-99 -151 -182 -155 -185 -3 -3 -25 -30 -50 -60 -25 -30 -55 -66 -66 -80 -66
-77 -215 -253 -249 -295 -22 -26 -45 -53 -50 -59 -6 -6 -78 -90 -160 -186 -83
-96 -199 -231 -260 -301 -60 -69 -135 -154 -165 -189 -30 -35 -71 -82 -91
-104 -163 -184 -224 -253 -233 -262 -6 -6 -36 -39 -66 -74 -30 -34 -64 -72
-75 -84 -99 -109 -194 -213 -210 -232 -29 -32 -185 -202 -220 -240 -16 -17
-73 -78 -126 -135 -340 -365 -507 -537 -949 -979 -378 -378 -608 -603 -816
-797 -56 -51 -237 -217 -298 -273 -27 -25 -57 -52 -66 -60 -27 -25 -161 -144
-220 -195 -30 -27 -57 -51 -60 -54 -5 -6 -383 -329 -425 -364 -17 -14 -107
-88 -270 -222 -37 -31 -217 -173 -294 -233 -19 -15 -57 -45 -85 -68 -59 -46
-422 -318 -511 -382 -207 -148 -318 -225 -546 -377 -141 -93 -290 -190 -329
-215 -40 -25 -87 -54 -104 -65 -50 -33 -361 -216 -496 -293 -287 -162 -860
-453 -860 -437 0 2 17 14 38 26 20 13 43 29 50 36 8 7 22 18 32 23 62 33 553
398 820 609 172 136 466 376 480 391 3 3 64 55 135 115 72 60 132 112 135 116
3 3 43 39 90 80 117 101 116 100 153 134 18 17 73 66 122 110 199 178 451 416
723 680 361 351 809 807 1076 1095 39 41 123 131 187 200 65 69 127 136 139
150 23 27 148 165 166 184 5 6 54 61 108 121 54 61 115 128 135 150 20 22 86
96 146 165 61 69 112 127 115 130 3 3 21 23 40 46 19 22 60 69 91 105 66 76
235 273 299 348 25 30 50 59 55 65 20 21 528 633 671 809 159 195 587 734 748
942 13 17 81 104 152 195 213 275 781 1029 900 1195 8 11 79 108 157 215 280
381 791 1102 1128 1590 229 331 308 446 413 600 47 69 111 163 143 210 32 47
112 164 178 260 65 96 151 222 190 280 83 122 251 369 377 555 48 72 94 139
102 150 36 49 249 363 264 387 20 34 1 51 182 -172z m5525 -1128 c198 -200
361 -366 362 -370 1 -4 -64 -50 -144 -102 -81 -52 -193 -127 -249 -167 l-103
-71 -123 127 c-114 118 -348 365 -414 437 -16 17 -72 78 -125 135 -52 57 -115
126 -140 153 -24 28 -59 66 -76 85 -18 19 -33 38 -32 41 0 5 14 16 273 219
l169 132 121 -128 c67 -70 283 -291 481 -491z m-4465 -82 c54 -58 112 -121
130 -140 18 -19 78 -84 134 -144 55 -59 112 -120 126 -135 14 -15 89 -94 167
-176 77 -83 163 -173 190 -201 168 -179 342 -361 363 -381 l25 -24 -75 -72
c-42 -40 -107 -101 -146 -137 -38 -36 -124 -115 -189 -176 -66 -61 -136 -126
-155 -144 -19 -18 -93 -87 -165 -154 -71 -66 -141 -132 -156 -146 -15 -14 -87
-82 -160 -151 -74 -69 -151 -142 -171 -161 -21 -19 -102 -96 -180 -170 -79
-75 -172 -164 -208 -197 -36 -34 -136 -130 -224 -214 -87 -84 -184 -176 -215
-206 -31 -29 -152 -146 -269 -260 -118 -113 -253 -243 -300 -289 -550 -528
-2221 -2193 -2787 -2777 -363 -374 -1241 -1255 -1386 -1390 -252 -236 -356
-332 -524 -481 -227 -202 -634 -539 -810 -672 -17 -12 -61 -46 -100 -76 -395
-302 -1006 -711 -1547 -1035 -128 -77 -490 -281 -648 -365 -195 -105 -869
-436 -886 -436 -2 0 -39 -16 -81 -36 -43 -20 -143 -63 -223 -96 -80 -33 -158
-66 -175 -73 -30 -13 -226 -90 -320 -125 -27 -11 -92 -35 -144 -55 -51 -20
-95 -35 -97 -33 -1 2 27 19 64 38 80 41 206 110 282 155 106 61 335 196 354
208 319 197 593 377 829 546 82 58 159 113 170 121 12 8 129 95 260 193 330
248 596 462 947 760 63 55 129 111 145 125 17 15 64 56 105 92 41 35 87 76
101 90 14 14 54 50 89 80 35 30 85 75 111 100 26 25 81 75 121 112 40 36 96
88 124 115 29 26 109 102 180 168 263 246 983 975 1305 1319 35 38 80 86 99
106 19 20 76 81 125 135 50 54 103 112 119 129 15 16 60 66 100 110 39 43 76
84 81 90 22 22 122 134 182 201 34 39 76 86 94 105 41 46 498 568 569 650 30
35 75 87 99 114 68 79 77 90 235 276 82 96 160 189 175 205 14 17 48 57 75 90
28 33 52 62 56 65 3 3 39 46 80 95 41 50 77 92 80 95 3 3 35 41 70 85 36 44
67 82 70 85 5 4 129 152 171 205 10 11 41 49 71 85 30 36 175 211 323 390 147
179 278 337 290 351 25 29 367 456 400 500 77 101 180 235 185 239 3 3 124
163 268 355 144 193 265 355 270 360 4 6 57 78 117 160 60 83 118 162 130 176
11 14 27 36 35 48 8 12 44 62 80 111 36 48 110 149 165 225 134 183 131 178
318 433 91 122 173 234 183 248 28 39 513 685 538 716 l21 27 24 -27 c13 -15
67 -74 121 -132z m3040 -181 c129 -142 226 -247 549 -589 29 -30 91 -95 139
-143 86 -88 87 -89 66 -105 -12 -10 -79 -62 -149 -117 -70 -55 -133 -104 -139
-110 -6 -5 -65 -53 -131 -106 -66 -53 -158 -129 -204 -168 -47 -39 -89 -71
-94 -71 -6 0 -210 201 -454 447 l-444 447 38 36 c21 19 90 80 153 135 63 54
122 106 131 115 9 8 38 33 65 55 26 22 117 99 203 172 147 125 155 131 170
114 9 -10 54 -61 101 -112z m-1609 -1336 c41 -42 239 -243 440 -446 l366 -370
-146 -131 c-158 -141 -218 -195 -265 -240 -17 -15 -62 -56 -99 -89 -38 -34
-85 -77 -105 -97 -57 -53 -313 -293 -347 -324 -16 -15 -93 -87 -170 -160 -77
-73 -158 -150 -180 -171 -22 -20 -112 -106 -200 -190 -88 -84 -185 -176 -215
-205 -30 -29 -133 -127 -229 -219 -95 -91 -194 -186 -220 -210 -25 -24 -124
-118 -220 -210 -95 -91 -194 -186 -220 -210 -25 -24 -107 -101 -181 -171 -163
-154 -192 -182 -356 -335 -169 -159 -175 -164 -299 -280 -60 -55 -123 -113
-140 -130 -30 -28 -214 -197 -239 -220 -144 -130 -234 -212 -247 -225 -24 -22
-102 -93 -308 -275 -18 -17 -43 -39 -55 -50 -12 -11 -53 -47 -91 -80 -37 -33
-73 -65 -79 -70 -9 -9 -135 -119 -401 -350 -33 -29 -76 -65 -95 -81 -19 -16
-37 -31 -40 -34 -30 -31 -519 -438 -795 -661 -905 -733 -1842 -1408 -2695
-1941 -224 -140 -577 -352 -685 -412 -16 -9 -48 -27 -70 -40 -22 -12 -83 -46
-135 -75 -52 -30 -115 -65 -140 -79 -46 -25 -110 -60 -330 -177 -127 -68 -596
-301 -705 -350 -33 -15 -114 -52 -180 -82 -174 -80 -531 -233 -670 -287 -66
-26 -129 -51 -140 -56 -86 -39 -490 -185 -745 -269 -162 -54 -590 -185 -638
-196 -9 -2 -69 -18 -132 -35 -63 -18 -122 -33 -130 -35 -8 -2 -69 -17 -135
-34 -148 -36 -282 -68 -315 -75 -14 -3 -113 -23 -220 -46 -107 -22 -206 -42
-220 -44 -14 -2 -81 -14 -150 -26 -69 -12 -138 -24 -155 -26 -16 -2 -41 -6
-55 -9 -14 -3 -45 -7 -70 -11 -25 -3 -69 -9 -99 -15 -144 -24 -76 -1 130 46 9
2 33 8 55 14 321 87 457 126 494 138 25 8 55 17 66 19 40 7 588 191 774 259
336 122 642 248 1000 410 375 170 676 322 1065 535 197 109 219 121 410 233
646 380 1378 879 1918 1309 123 99 436 357 457 378 3 3 41 37 85 75 44 39 96
84 115 101 47 42 259 234 286 259 11 11 76 72 144 135 241 224 856 834 1170
1160 694 720 2129 2155 3005 3005 159 154 314 305 345 335 78 76 422 406 492
471 31 30 127 122 215 205 87 83 181 173 208 198 28 26 116 111 198 188 81 77
156 148 166 157 11 9 84 77 162 151 79 74 177 167 218 206 42 38 117 108 166
154 50 46 97 91 106 100 45 42 135 125 238 220 62 58 127 119 145 137 17 17
34 32 37 32 4 1 40 -34 80 -76z"/>
</g>
</svg>
